# xmcd
#
# Track frame offsets:
#	150
#	26385
#	54280
#	81997
#	118325
#	151055
#	176877
#	209567
#	238955
#	262030
#	292995
#	319512
#
# Disc length: 4589 seconds
#
# Revision: 1
# Processed by: cddbd v1.4PL0 Copyright (c) Steve Scherf et al.
# Submitted via: EasyCDDAExtractor 6.0.0.1
#
DISCID=aa11eb0c
DTITLE=Trouble on Vinyl - Code Of The Streets
DYEAR=1997
DGENRE=Jungle
TTITLE0=Energise (V.I.P) - DJ Red
TTITLE1=Mode One (Remix) - IQ Collective
TTITLE2=The Wrath - DJ Kane
TTITLE3=Bring Da Flava - D - Bridge (Gang Related Remix)
TTITLE4=Bypass - Future Forces Inc
TTITLE5=Bass Control - Outta Dynamics
TTITLE6=Sky 97 - Just Jungle
TTITLE7=Soundscape - Special K
TTITLE8=The Life - DJ Kane
TTITLE9=Enta Da Dragon - DJ Red
TTITLE10=Transmission - IQ Collective
TTITLE11=Sky (Original Mix) - Just Jungle
EXTD=
EXTT0=
EXTT1=
EXTT2=
EXTT3=
EXTT4=
EXTT5=
EXTT6=
EXTT7=
EXTT8=
EXTT9=
EXTT10=
EXTT11=
PLAYORDER=
